PathFileType	4	(X/Y/Z)	Walk7.trc
DataRate	CameraRate	NumFrames	NumMarkers	Units	OrigDataRate	OrigDataStartFrame	OrigNumFrames
200.000000	200.000000	5	59	mm	200.000000	627	787
Frame#	Times		LCAR		LUA1		LACR1		RTH3		RCAR		RUA1		RACR1		LTB2		RTH1		RFHD		RWRR		RTH2		T10		RPSI		RElbowM		STRN		RBack		LMT5		LLFC		C7		RASI		LTB1		RTH4		LMT1		LPSI		LTB3		LFHD		LTB4		LToe		LLMAL		LTH3		LASI		LElbowM		LTH4		CLAV		RFA1		RElbow		RBHD		LTH1		RWRU		RLFC		LCAL		LFA1		RTB2		LWRR		LTH2		LBHD		LElbow		RTB1		RMT5		RTB3		LWRU		RTB4		RMT1		RToe		RMMAL		RLMAL		RCAL		LMMAL
			X1	Y1	Z1	X2	Y2	Z2	X3	Y3	Z3	X4	Y4	Z4	X5	Y5	Z5	X6	Y6	Z6	X7	Y7	Z7	X8	Y8	Z8	X9	Y9	Z9	X10	Y10	Z10	X11	Y11	Z11	X12	Y12	Z12	X13	Y13	Z13	X14	Y14	Z14	X15	Y15	Z15	X16	Y16	Z16	X17	Y17	Z17	X18	Y18	Z18	X19	Y19	Z19	X20	Y20	Z20	X21	Y21	Z21	X22	Y22	Z22	X23	Y23	Z23	X24	Y24	Z24	X25	Y25	Z25	X26	Y26	Z26	X27	Y27	Z27	X28	Y28	Z28	X29	Y29	Z29	X30	Y30	Z30	X31	Y31	Z31	X32	Y32	Z32	X33	Y33	Z33	X34	Y34	Z34	X35	Y35	Z35	X36	Y36	Z36	X37	Y37	Z37	X38	Y38	Z38	X39	Y39	Z39	X40	Y40	Z40	X41	Y41	Z41	X42	Y42	Z42	X43	Y43	Z43	X44	Y44	Z44	X45	Y45	Z45	X46	Y46	Z46	X47	Y47	Z47	X48	Y48	Z48	X49	Y49	Z49	X50	Y50	Z50	X51	Y51	Z51	X52	Y52	Z52	X53	Y53	Z53	X54	Y54	Z54	X55	Y55	Z55	X56	Y56	Z56	X57	Y57	Z57	X58	Y58	Z58	X59	Y59	Z59

627	3.135	444.43	797.48	-253.31	334.82	1201.4	-241.93	335.11	1380.5	-145.26	388.85	582.57	182.57	383.56	780.11	326.73	333.45	1191.2	259.74	346.38	1371.9	164.42	290.83	303.99	-124.22	387.55	747.68	233.85	487.08	1574.6	47.632	372.47	830.53	274.42	443.63	671.44	190.73	195.58	1151.6	12.006	207.77	972.29	70.995	265.6	1041.3	199.01	465.02	1237.1	8.5114	219.34	1319.3	123.59	136.57	94.514	-105.09	419.93	471.34	-137.09	268.17	1419	19.796	462.46	982.96	159.16	381.52	327.04	-72.936	386.24	664.21	206.28	170.8	74.327	-39.697	203.61	961.51	-17.923	238.55	230.4	-74.401	469.44	1581.4	-44.746	309.41	278.79	-71.583	204.86	30.253	-80.16	124.6	195.05	-93.075	397.86	585.99	-157.35	445.44	952.66	-131.33	268.18	1046.7	-204.32	377.83	668.53	-170.71	405.72	1339.8	4.6804	289.37	926.47	311.05	279.62	1074	291.74	333.11	1555.5	93.976	357.49	747.79	-195.82	316.56	819.29	317.01	390.04	496.25	152.91	70.167	222.56	-45.561	338.95	937.2	-280.38	393.46	256.75	121.55	415.35	843.07	-218.53	433.94	685.14	-167.18	309.39	1556.8	-46.779	310.97	1075.1	-272.22	425.05	342.41	70.516	437.83	26.708	101.96	403.79	171.1	61.759	380.78	827.03	-280.12	415.39	255.97	62.608	472.85	33.615	26.157	538.61	30.249	58.713	372.75	70.224	-1.1226	355.77	59.648	80.328	293.56	26.785	40.687	146.7	178.26	-11.9
628	3.14	443.54	795.47	-254.17	339.24	1201.7	-241.83	341.02	1380.9	-145.34	392.48	582.48	182.21	394.37	782.36	327.75	340.01	1192	260.09	352.07	1372.6	164.32	304.45	304.09	-124.08	391.34	747.45	233.52	493.3	1574.9	47.728	382.46	832.14	275.26	447.47	670.95	190.27	201.29	1152.3	12.464	213.45	973.04	70.8	272.52	1041.5	199.71	470.74	1237.2	7.9912	225.12	1320	123.71	154.92	92.891	-106.25	431.07	472.9	-136.92	274.36	1419.5	19.946	467.71	982.78	159.65	394.98	328.2	-73.033	390.09	664.07	206.01	189.63	73.04	-41.1	209.24	962.23	-17.746	253.21	229.53	-74.451	475.72	1581.6	-44.636	323.36	278.95	-71.594	225.37	30.616	-81.158	139.93	192.54	-93.022	407.48	587.05	-157.44	451.16	953.67	-131.27	271.83	1047.4	-203.45	385.79	669.04	-170.58	411.62	1340.2	4.6125	298.06	927.26	311.93	287.18	1074.7	292.33	339.11	1555.9	94.073	363.98	747.97	-195.65	326.41	820.5	318.45	391.26	495.62	152.42	84.338	218.25	-45.343	340.41	937.29	-280.61	393.67	256.74	121.61	415.07	841.67	-219.39	441.84	686.78	-167.59	315.72	1557.7	-46.838	314.59	1075.5	-271.68	425.96	342.2	70.677	437.81	26.652	101.91	404.02	171.02	61.867	380.81	826.63	-281.12	415.72	255.75	62.762	472.8	33.569	26.247	538.6	30.262	58.77	372.73	70.209	-1.0502	355.75	59.664	80.284	293.55	26.814	40.681	162.78	175.43	-12.58
629	3.145	442.61	793.55	-255.28	343.64	1201.8	-241.67	346.76	1381.2	-145.42	395.71	582.34	181.87	404.94	784.49	328.64	346.29	1192.7	260.39	358	1373.2	164.41	318.04	304.1	-123.87	395.71	747.27	233.12	499.15	1575.1	47.932	392.51	833.86	275.97	451	670.36	189.71	207.15	1152.7	12.904	219.09	973.89	70.825	279.53	1041.8	200.49	476.6	1237.5	7.4555	230.87	1320.6	123.58	173.56	91.195	-107.26	442.24	474.52	-136.77	280.14	1420	19.885	473.19	982.65	159.92	408.5	329.43	-73.086	394.42	664.01	205.79	208.42	71.524	-42.556	214.56	962.9	-17.656	267.94	228.55	-74.5	481.82	1581.7	-44.487	337.47	279.01	-71.608	245.93	30.775	-82.405	155.5	189.62	-93.078	417.15	587.97	-157.3	456.81	954.66	-131.15	275.52	1048.1	-202.81	393.94	669.77	-170.43	417.65	1340.5	4.5798	306.71	928.13	312.62	294.3	1075.4	293.03	345.15	1556.3	94.085	370.86	748.09	-195.13	336.09	821.78	319.81	394.29	495.55	151.99	98.966	213.63	-45.105	342.06	937.39	-280.68	393.81	256.69	121.71	415	840.16	-220.32	449.72	688.39	-167.97	321.59	1558.1	-46.936	318.21	1075.8	-271.23	426.62	342.01	70.929	437.81	26.665	101.93	404.34	170.94	62.017	380.65	826.28	-282.53	415.95	255.6	62.956	472.83	33.542	26.282	538.56	30.255	58.858	372.79	70.161	-1.1343	355.73	59.714	80.247	293.56	26.878	40.65	178.5	172.46	-12.791
630	3.15	441.74	791.7	-256.35	348.27	1201.9	-241.43	352.41	1381.5	-145.42	398.87	582.18	181.63	415.27	786.52	329.57	352.77	1193.5	260.66	363.9	1373.8	164.39	331.56	303.87	-123.83	400.87	747.2	232.67	505.35	1575.3	48.017	402.23	835.6	276.73	455.16	670	189.24	212.87	1153.1	13.177	224.79	974.42	71.025	286.57	1042.4	200.95	482.46	1237.7	7.0071	236.49	1321.2	123.59	192.47	89.233	-108.22	453.42	476.1	-136.55	286.21	1420.3	19.894	478.28	982.63	160.18	422.11	330.63	-73.102	398.05	663.79	205.3	227.47	69.881	-43.559	220.38	963.43	-17.684	282.92	227.29	-74.513	487.96	1582	-44.392	351.93	279.04	-71.739	266.87	30.723	-83.449	171.28	186.43	-93.136	426.71	588.97	-157.17	462.68	955.69	-131.07	279.35	1048.8	-202.18	401.54	670.2	-170.36	423.49	1340.7	4.4456	315.45	929.09	314.29	301.43	1075.9	293.52	351.17	1556.6	94.088	378.23	748.1	-194.02	345.99	823.07	320.42	395.84	495.78	152.34	113.76	208.35	-45.043	343.79	937.47	-280.98	393.91	256.62	121.85	414.81	839.04	-221.37	459.28	690.01	-168.55	327.88	1558.5	-46.937	321.69	1076	-270.77	427.2	341.75	71.22	437.8	26.683	101.98	404.62	170.88	62.124	380.67	825.94	-283.38	416.21	255.43	63.191	472.87	33.549	26.284	538.57	30.283	58.933	372.86	70.127	-1.1792	355.69	59.716	80.155	293.6	27.005	40.651	194.69	169.4	-12.812
631	3.155	440.88	789.96	-257.55	352.9	1201.9	-241.23	358.27	1381.6	-145.42	401.92	582.07	181.25	425.53	788.68	330.45	358.77	1194.3	261.09	369.77	1374.3	164.16	345.08	303.55	-123.69	406.29	747.11	232.22	511.29	1575.4	48.022	411.81	837.28	277.54	460.02	669.79	188.5	218.36	1153.5	13.541	230.14	975.03	70.88	293.57	1042.6	201.9	488.32	1237.7	6.4765	242.52	1321.7	123.73	211.41	87.014	-108.93	464.39	477.62	-136.12	292.13	1420.7	19.846	483.35	982.67	160.49	435.44	331.77	-73.047	402.3	663.57	204.67	246.89	68.459	-44.46	226	964.1	-17.593	298.26	226.09	-74.534	493.94	1582.2	-44.407	366.07	279.01	-71.717	287.86	30.735	-84.465	187.19	183.07	-93.099	436.13	590.18	-157.11	468.57	956.77	-130.91	283.15	1049.3	-201.57	409.76	670.78	-170.3	429.37	1340.8	4.2915	324.06	929.8	315.26	308.37	1076.5	294.15	357.05	1557.1	94.051	385.52	748.52	-194.03	356.25	824.08	320.84	397.05	495.94	152.72	128.52	203.15	-45.074	345.17	937.64	-281.15	394	256.59	121.94	415.11	837.8	-222.38	466.13	691.52	-168.83	333.8	1558.8	-46.906	325.34	1076.2	-270.31	427.96	341.74	71.634	437.81	26.681	101.98	404.9	170.62	62.079	379.27	824.67	-285.07	416.75	255.31	63.414	472.89	33.485	26.306	538.57	30.284	59.011	373.03	70.116	-1.2693	355.7	59.721	80.041	293.65	27.089	40.63	211.35	166.7	-12.897
